<?xml version="1.0" encoding="UTF-8" standalone="no"?>
<!DOCTYPE svg PUBLIC "-//W3C//DTD SVG 1.1//EN" "http://www.w3.org/Graphics/SVG/1.1/DTD/svg11.dtd">
<svg version="1.1" xmlns="http://www.w3.org/2000/svg" xmlns:xlink="http://www.w3.org/1999/xlink" preserveAspectRatio="xMidYMid meet" viewBox="52.29032258064517 254.50967741935486 541.6774193548388 148.49032258064508" width="447" height="120.12"><defs><path d="M590.97 340.65L262.74 400L262.74 370.32L330.22 359.48L330.22 296.15L262.68 285.19L262.68 255.51L590.97 314.55L590.97 340.65ZM482.58 336.95L484.25 336.72L485.91 336.48L487.58 336.25L489.25 336.02L490.92 335.8L492.6 335.58L494.27 335.37L495.95 335.16L497.62 334.95L499.3 334.74L500.98 334.54L502.66 334.34L504.34 334.14L506.02 333.95L507.7 333.75L509.38 333.56L511.06 333.37L512.74 333.18L514.43 332.99L516.11 332.8L517.79 332.62L519.48 332.43L521.16 332.24L522.84 332.06L524.52 331.87L526.21 331.68L527.89 331.5L529.57 331.31L531.25 331.12L532.93 330.93L534.61 330.73L536.29 330.54L537.97 330.34L539.64 330.15L541.32 329.95L542.99 329.74L544.67 329.54L546.34 329.33L548.01 329.12L549.68 328.9L549.68 327.33L548.01 327.13L546.34 326.93L544.67 326.74L543 326.55L541.33 326.37L539.65 326.19L537.98 326.02L536.3 325.85L534.63 325.68L532.95 325.51L531.27 325.35L529.59 325.19L527.91 325.03L526.23 324.87L524.55 324.71L522.87 324.55L521.19 324.39L519.5 324.24L517.82 324.08L516.14 323.92L514.46 323.75L512.77 323.59L511.09 323.43L509.41 323.26L507.73 323.09L506.05 322.91L504.36 322.74L502.68 322.55L501 322.37L499.32 322.18L497.65 321.98L495.97 321.78L494.29 321.57L492.61 321.36L490.94 321.14L489.27 320.91L487.59 320.67L485.92 320.43L484.25 320.18L482.58 319.92L356.67 300.36L356.77 354.61L482.58 336.95Z" id="a6SZP6MVr"></path><path d="M109.55 274.22C78.48 274.22 53.29 299.41 53.29 330.48C53.29 361.55 78.48 386.74 109.55 386.74C140.62 386.74 165.81 361.55 165.81 330.48C165.81 299.41 140.62 274.22 109.55 274.22Z" id="bYB7AH5bh"></path></defs><g><g><use xlink:href="#a6SZP6MVr" opacity="1" fill="#f39c12" fill-opacity="1"></use><g><use xlink:href="#a6SZP6MVr" opacity="1" fill-opacity="0" stroke="#000000" stroke-width="1" stroke-opacity="0"></use></g></g><g><use xlink:href="#bYB7AH5bh" opacity="1" fill="#f39c12" fill-opacity="1"></use><g><use xlink:href="#bYB7AH5bh" opacity="1" fill-opacity="0" stroke="#000000" stroke-width="1" stroke-opacity="0"></use></g></g></g></svg>