<?xml version="1.0" encoding="UTF-8" standalone="no"?>
<!DOCTYPE svg PUBLIC "-//W3C//DTD SVG 1.1//EN" "http://www.w3.org/Graphics/SVG/1.1/DTD/svg11.dtd">
<svg version="1.1" xmlns="http://www.w3.org/2000/svg" xmlns:xlink="http://www.w3.org/1999/xlink" preserveAspectRatio="xMidYMid meet" viewBox="200.229868228404 275.5212298682284 231.7481698389458 148.58565153733537" width="227.75" height="144.59"><defs><path d="M233.23 364.6L224.84 364.6L209.01 320.19L208.77 320.19L208.68 364.6L201.23 364.6L201.42 276.52L208.87 276.52L208.77 316.49L209.01 316.49L225.03 276.57L233.32 276.57L215.24 318.41L233.23 364.6Z" id="e4ht1q0gWw"></path><path d="M251.86 276.53L252.69 276.55L253.51 276.57L254.33 276.61L255.14 276.65L255.95 276.72L256.75 276.8L257.54 276.89L258.31 277.01L259.08 277.15L259.83 277.31L260.57 277.5L261.3 277.72L262.01 277.97L262.71 278.24L263.38 278.55L264.04 278.9L264.69 279.28L265.31 279.7L265.91 280.16L266.48 280.66L267.04 281.21L267.57 281.8L268.08 282.44L268.56 283.13L269.01 283.87L269.44 284.67L269.83 285.52L270.2 286.42L270.54 287.39L270.84 288.41L271.11 289.5L271.35 290.65L271.56 291.87L271.72 293.15L271.86 294.51L271.95 295.94L272.01 297.44L272.02 299.01L272.02 299.85L272.01 300.69L271.98 301.52L271.95 302.35L271.9 303.17L271.84 303.99L271.77 304.81L271.68 305.61L271.58 306.41L271.46 307.19L271.33 307.97L271.18 308.73L271.01 309.48L270.83 310.22L270.62 310.94L270.39 311.65L270.15 312.34L269.88 313.02L269.59 313.68L269.27 314.31L268.93 314.93L268.57 315.53L268.18 316.1L267.76 316.66L267.32 317.19L266.85 317.69L266.35 318.17L265.82 318.62L265.26 319.05L264.67 319.44L264.05 319.81L263.39 320.15L262.71 320.45L261.98 320.72L261.23 320.97L260.43 321.17L259.6 321.34L258.74 321.48L257.83 321.58L256.89 321.64L274.55 364.7L266.68 364.7L249.77 321.55L249.53 321.55L249.44 364.65L242.04 364.6L242.23 276.52L250.19 276.52L251.03 276.52L251.86 276.53ZM249.58 314.85L252.25 314.85L254.12 314.8L255.79 314.65L257.27 314.41L258.58 314.05L259.72 313.58L260.7 312.99L261.55 312.28L262.25 311.43L262.84 310.45L263.31 309.33L263.69 308.06L263.97 306.64L264.17 305.07L264.3 303.33L264.37 301.42L264.39 299.34L264.35 296.86L264.22 294.66L263.99 292.72L263.67 291.03L263.24 289.58L262.71 288.33L262.07 287.29L261.32 286.42L260.47 285.72L259.49 285.17L258.41 284.75L257.2 284.44L255.87 284.23L254.42 284.1L252.84 284.04L251.13 284.02L249.63 284.02L249.58 314.85Z" id="d4mGgGAm9J"></path><path d="M308.52 364.74L305.57 346.61L288.56 346.57L285.66 364.65L277.69 364.65L293.58 276.57L300.6 276.57L316.49 364.74L308.52 364.74ZM296.71 288.5L296.62 289.27L296.52 290.05L296.43 290.83L296.34 291.62L296.25 292.4L296.16 293.18L296.07 293.97L295.99 294.75L295.9 295.54L295.81 296.32L295.72 297.11L295.63 297.89L295.54 298.68L295.45 299.46L295.36 300.25L295.26 301.03L295.17 301.81L295.07 302.59L294.97 303.38L294.87 304.15L294.76 304.93L294.65 305.71L289.92 339.49L304.45 339.49L299.2 305.71L299.08 304.93L298.97 304.15L298.86 303.38L298.76 302.59L298.66 301.81L298.57 301.03L298.48 300.25L298.4 299.46L298.32 298.68L298.24 297.89L298.16 297.11L298.09 296.32L298.01 295.54L297.94 294.75L297.87 293.97L297.8 293.18L297.72 292.4L297.65 291.62L297.57 290.83L297.49 290.05L297.41 289.27L297.32 288.5L297.23 287.72L296.81 287.72L296.71 288.5Z" id="a7DtExH7GJ"></path><path d="M338.55 284.2L338.41 364.84L330.96 364.84L331.1 284.2L319.11 284.2L319.11 276.71L350.55 276.76L350.55 284.2L338.55 284.2Z" id="a5HCjGwkx"></path><path d="M366.66 284.2L366.62 315.27L383.81 315.31L383.81 322.81L366.62 322.76L366.57 357.34L384.33 357.39L384.33 364.88L359.17 364.84L359.36 276.76L384.52 276.8L384.42 284.25L366.66 284.2Z" id="a2MT22H8MK"></path><path d="M421.01 364.98L418.06 346.85L401.05 346.8L398.15 364.88L390.18 364.88L406.07 276.8L413.1 276.8L428.98 364.98L421.01 364.98ZM409.2 288.73L409.11 289.51L409.02 290.29L408.92 291.07L408.83 291.85L408.74 292.63L408.65 293.42L408.57 294.2L408.48 294.99L408.39 295.77L408.3 296.56L408.21 297.34L408.12 298.13L408.03 298.91L407.94 299.7L407.85 300.48L407.76 301.26L407.66 302.05L407.56 302.83L407.46 303.61L407.36 304.39L407.25 305.17L407.14 305.94L402.37 339.68L416.94 339.72L411.69 305.94L411.57 305.17L411.46 304.39L411.35 303.61L411.25 302.83L411.15 302.05L411.06 301.26L410.98 300.48L410.89 299.7L410.81 298.91L410.73 298.13L410.66 297.34L410.58 296.56L410.51 295.77L410.43 294.99L410.36 294.2L410.29 293.42L410.21 292.63L410.14 291.85L410.06 291.07L409.98 290.29L409.9 289.51L409.81 288.73L409.72 287.95L409.3 287.95L409.2 288.73Z" id="azrsHyuyw"></path><path d="M207.6 391.88L208.04 391.9L208.48 391.93L208.91 391.96L209.33 392.02L209.75 392.09L210.16 392.18L210.57 392.3L210.97 392.43L211.36 392.6L211.74 392.79L212.12 393.01L212.49 393.27L212.85 393.56L213.19 393.86L213.51 394.17L213.8 394.5L214.06 394.85L214.3 395.21L214.51 395.59L214.7 395.97L214.86 396.37L215 396.78L215.12 397.2L215.21 397.63L215.29 398.06L215.34 398.51L215.37 398.96L215.38 399.41L215.37 399.83L215.34 400.24L215.29 400.66L215.22 401.07L215.12 401.49L215.01 401.89L214.88 402.29L214.72 402.68L214.54 403.06L214.34 403.43L214.11 403.79L213.87 404.13L213.6 404.45L213.31 404.75L212.99 405.04L212.63 405.32L212.25 405.57L211.86 405.8L211.47 405.99L211.06 406.16L210.64 406.31L210.22 406.43L209.79 406.54L209.35 406.62L208.91 406.69L208.46 406.74L208.02 406.78L207.57 406.8L207.11 406.81L206.66 406.82L203.48 406.82L203.48 420.22L201.65 420.22L201.7 391.87L206.71 391.87L207.16 391.87L207.6 391.88ZM203.53 405.08L206.76 405.08L207.72 404.99L208.6 404.86L209.39 404.68L210.1 404.46L210.73 404.2L211.27 403.89L211.72 403.54L212.22 403.04L212.64 402.5L212.98 401.92L213.24 401.31L213.43 400.66L213.55 399.98L213.6 399.27L213.56 398.51L213.43 397.77L213.22 397.04L212.92 396.36L212.53 395.73L212.04 395.17L211.44 394.68L210.8 394.28L210.14 393.99L209.44 393.79L208.72 393.66L207.99 393.59L207.24 393.56L206.48 393.56L203.53 393.56L203.53 405.08Z" id="a4Q3ij5LK"></path><path d="M223.62 391.97L223.95 391.97L224.27 391.98L224.6 391.99L224.92 392.01L225.24 392.03L225.56 392.06L225.87 392.09L226.19 392.14L226.5 392.19L226.81 392.26L227.11 392.33L227.41 392.42L227.71 392.51L228.01 392.63L228.3 392.75L228.59 392.89L228.88 393.05L229.16 393.23L229.43 393.42L229.72 393.63L229.99 393.85L230.24 394.09L230.48 394.33L230.7 394.58L230.9 394.84L231.09 395.11L231.27 395.39L231.43 395.67L231.57 395.96L231.7 396.26L231.82 396.56L231.92 396.87L232.01 397.19L232.09 397.51L232.15 397.83L232.2 398.16L232.24 398.49L232.27 398.83L232.29 399.17L232.29 399.51L232.27 400.19L232.2 400.85L232.09 401.47L231.94 402.06L231.74 402.62L231.5 403.14L231.23 403.63L230.92 404.09L230.57 404.52L230.19 404.91L229.78 405.26L229.34 405.59L228.86 405.87L228.36 406.13L227.83 406.34L227.27 406.53L226.69 406.68L226.08 406.79L225.46 406.87L224.81 406.91L224.14 406.91L233.46 420.31L231.4 420.31L222.17 406.86L221.28 406.86L221.24 420.31L219.41 420.31L219.46 391.96L222.97 391.96L223.3 391.97L223.62 391.97ZM221.28 393.65L221.28 405.18L223.53 405.18L224.49 405.13L225.37 405.03L226.16 404.89L226.87 404.7L227.5 404.47L228.04 404.19L228.5 403.87L229.02 403.34L229.47 402.77L229.84 402.15L230.13 401.51L230.34 400.83L230.47 400.13L230.51 399.41L230.45 398.52L230.28 397.64L229.98 396.81L229.56 396.05L229.01 395.36L228.33 394.77L227.51 394.31L226.85 394.05L226.14 393.87L225.41 393.75L224.66 393.69L223.91 393.66L223.17 393.65L222.45 393.65L221.28 393.65Z" id="g15r0My2Cj"></path><path d="M253.48 391.83L254.73 392.12L255.94 392.51L257.1 393.01L258.21 393.6L259.27 394.28L260.26 395.04L261.19 395.89L262.04 396.81L262.81 397.79L263.5 398.84L264.1 399.95L264.6 401.11L264.99 402.32L265.28 403.56L265.46 404.85L265.51 406.16L265.45 407.47L265.27 408.76L264.97 410L264.57 411.21L264.07 412.36L263.47 413.47L262.78 414.51L262 415.5L261.14 416.41L260.21 417.25L259.21 418.01L258.15 418.69L257.04 419.28L255.87 419.77L254.65 420.16L253.4 420.45L252.11 420.63L250.8 420.69L249.48 420.62L248.2 420.45L246.94 420.16L245.73 419.76L244.56 419.27L243.45 418.68L242.39 418L241.39 417.23L240.46 416.39L239.61 415.47L238.83 414.48L238.15 413.43L237.55 412.32L237.05 411.17L236.65 409.96L236.36 408.71L236.19 407.43L236.13 406.11L236.2 404.8L236.38 403.52L236.67 402.27L237.07 401.07L237.57 399.91L238.17 398.81L238.86 397.76L239.64 396.78L240.49 395.87L241.42 395.02L242.42 394.26L243.49 393.59L244.61 393L245.78 392.51L247 392.11L248.26 391.83L249.56 391.65L250.89 391.59L252.2 391.65L253.48 391.83ZM248.26 393.54L247.03 393.86L245.84 394.3L244.71 394.85L243.65 395.5L242.65 396.24L241.73 397.08L240.89 397.99L240.14 398.98L239.49 400.04L238.94 401.16L238.5 402.34L238.18 403.56L237.98 404.82L237.92 406.11L237.98 407.41L238.18 408.67L238.5 409.9L238.93 411.07L239.48 412.2L240.13 413.26L240.87 414.25L241.7 415.17L242.62 416.01L243.61 416.76L244.68 417.42L245.8 417.97L246.98 418.41L248.21 418.73L249.49 418.93L250.8 419L252.1 418.93L253.37 418.73L254.6 418.41L255.78 417.97L256.91 417.42L257.98 416.77L258.98 416.02L259.9 415.18L260.74 414.26L261.49 413.27L262.15 412.21L262.7 411.09L263.14 409.92L263.46 408.7L263.66 407.45L263.73 406.16L263.66 404.87L263.47 403.6L263.14 402.38L262.71 401.2L262.16 400.08L261.51 399.02L260.76 398.02L259.92 397.1L259.01 396.26L258.01 395.51L256.95 394.86L255.82 394.31L254.64 393.87L253.42 393.54L252.15 393.34L250.85 393.28L249.54 393.34L248.26 393.54Z" id="g5hXOlC6Qc"></path><path d="M275.82 392.02L276.26 392.04L276.69 392.07L277.12 392.11L277.55 392.16L277.97 392.23L278.38 392.32L278.78 392.44L279.18 392.57L279.58 392.74L279.96 392.93L280.34 393.15L280.71 393.41L281.07 393.7L281.41 394L281.72 394.31L282.01 394.64L282.28 394.99L282.51 395.35L282.73 395.73L282.91 396.11L283.08 396.51L283.22 396.92L283.34 397.34L283.43 397.77L283.5 398.2L283.56 398.65L283.59 399.1L283.6 399.55L283.59 399.97L283.56 400.38L283.5 400.8L283.43 401.22L283.34 401.63L283.23 402.03L283.09 402.43L282.93 402.82L282.76 403.2L282.55 403.57L282.33 403.93L282.08 404.27L281.82 404.59L281.52 404.89L281.21 405.18L280.84 405.46L280.47 405.71L280.08 405.94L279.68 406.13L279.28 406.31L278.86 406.45L278.43 406.58L278 406.68L277.57 406.76L277.13 406.83L276.68 406.88L276.23 406.92L275.78 406.94L275.33 406.95L274.88 406.96L271.7 406.96L271.7 420.36L269.87 420.36L269.92 392.01L274.93 392.01L275.38 392.01L275.82 392.02ZM271.79 405.22L275.02 405.22L275.98 405.14L276.86 405L277.66 404.83L278.36 404.6L278.99 404.34L279.53 404.03L279.99 403.68L280.49 403.18L280.9 402.64L281.24 402.06L281.5 401.45L281.69 400.8L281.81 400.12L281.86 399.41L281.82 398.65L281.7 397.91L281.49 397.18L281.18 396.5L280.79 395.87L280.3 395.31L279.71 394.82L279.07 394.42L278.4 394.13L277.7 393.93L276.99 393.8L276.25 393.73L275.5 393.7L274.74 393.7L271.79 393.7L271.79 405.22Z" id="b2gUHDMf8N"></path><path d="M289.5 404.05L300.93 404.05L300.93 405.74L289.5 405.74L289.45 418.72L301.17 418.72L301.17 420.4L287.63 420.36L287.67 392.01L301.21 392.06L301.21 393.75L289.5 393.75L289.5 404.05Z" id="h1S4zLEEi2"></path><path d="M310.91 392.11L311.23 392.11L311.56 392.12L311.88 392.13L312.2 392.15L312.52 392.17L312.84 392.2L313.16 392.23L313.47 392.28L313.78 392.33L314.09 392.4L314.4 392.47L314.7 392.56L315 392.66L315.3 392.77L315.59 392.89L315.88 393.03L316.16 393.19L316.44 393.37L316.72 393.56L317.01 393.77L317.28 393.99L317.53 394.23L317.76 394.47L317.98 394.72L318.19 394.98L318.38 395.25L318.55 395.53L318.71 395.81L318.86 396.1L318.99 396.4L319.1 396.71L319.21 397.02L319.3 397.33L319.37 397.65L319.44 397.97L319.49 398.3L319.53 398.64L319.56 398.97L319.57 399.31L319.58 399.65L319.56 400.34L319.49 400.99L319.38 401.61L319.22 402.2L319.03 402.76L318.79 403.28L318.52 403.78L318.21 404.23L317.86 404.66L317.48 405.05L317.07 405.4L316.62 405.73L316.15 406.01L315.64 406.27L315.11 406.49L314.55 406.67L313.97 406.82L313.37 406.93L312.74 407.01L312.09 407.05L311.43 407.05L320.75 420.45L318.69 420.45L309.46 407L308.57 407L308.52 420.45L306.69 420.45L306.74 392.11L310.25 392.11L310.58 392.11L310.91 392.11ZM308.61 393.79L308.61 405.32L310.86 405.32L311.83 405.27L312.7 405.17L313.5 405.03L314.21 404.84L314.83 404.61L315.37 404.33L315.83 404.01L316.35 403.48L316.8 402.91L317.17 402.29L317.46 401.65L317.67 400.97L317.8 400.27L317.84 399.55L317.79 398.66L317.61 397.78L317.31 396.95L316.89 396.19L316.34 395.5L315.66 394.92L314.85 394.45L314.18 394.19L313.47 394.01L312.74 393.89L311.99 393.83L311.24 393.8L310.5 393.79L309.79 393.79L308.61 393.79Z" id="gLix10Dg7"></path><path d="M329.6 420.5L329.65 393.84L322.3 393.84L322.3 392.15L338.79 392.2L338.79 393.89L331.43 393.89L331.43 420.5L329.6 420.5Z" id="bgocCHxGr"></path><path d="M342.02 420.5L342.07 392.15L343.89 392.15L343.85 420.5L342.02 420.5Z" id="eAz2wwasV"></path><path d="M351.77 404.15L363.2 404.15L363.2 405.83L351.77 405.83L351.72 418.81L363.43 418.81L363.43 420.5L349.89 420.45L349.99 392.15L363.53 392.2L363.53 393.89L351.77 393.84L351.77 404.15Z" id="a2nPAO7D22"></path><path d="M376.41 393.51C373.41 393.51 371.07 395.95 371.07 398.9C371.07 401.9 373.93 403.02 376.18 404.19C376.71 404.47 381.02 406.72 381.56 407C383.81 408.18 384.8 410.1 384.8 412.67C384.8 417.36 380.53 420.92 375.89 420.87C371.96 420.87 368.87 418.44 367.55 414.78C367.71 414.71 368.99 414.15 369.15 414.08C370.37 417.08 372.52 419.19 375.99 419.19C379.74 419.19 382.97 416.23 383.02 412.49C383.02 409.25 379.74 408.04 377.3 406.72C376.79 406.45 372.7 404.28 372.19 404.01C370.23 402.93 369.29 401.19 369.29 398.95C369.29 394.73 372.33 391.78 376.55 391.78C379.41 391.78 382.13 393.32 383.48 395.76C383.4 395.83 382.96 396.21 382.17 396.88C380.14 394.64 378.22 393.51 376.41 393.51Z" id="a8hJhA0DF"></path><path d="M408.88 390.93C400.55 390.93 393.79 397.69 393.79 406.02C393.79 414.35 400.55 421.11 408.88 421.11C417.21 421.11 423.96 414.35 423.96 406.02C423.96 397.69 417.21 390.93 408.88 390.93Z" id="bgn9EmCnU"></path></defs><g><g><use xlink:href="#e4ht1q0gWw" opacity="1" fill="#f39c12" fill-opacity="1"></use><g><use xlink:href="#e4ht1q0gWw" opacity="1" fill-opacity="0" stroke="#000000" stroke-width="1" stroke-opacity="0"></use></g></g><g><use xlink:href="#d4mGgGAm9J" opacity="1" fill="#f39c12" fill-opacity="1"></use><g><use xlink:href="#d4mGgGAm9J" opacity="1" fill-opacity="0" stroke="#000000" stroke-width="1" stroke-opacity="0"></use></g></g><g><use xlink:href="#a7DtExH7GJ" opacity="1" fill="#f39c12" fill-opacity="1"></use><g><use xlink:href="#a7DtExH7GJ" opacity="1" fill-opacity="0" stroke="#000000" stroke-width="1" stroke-opacity="0"></use></g></g><g><use xlink:href="#a5HCjGwkx" opacity="1" fill="#f39c12" fill-opacity="1"></use><g><use xlink:href="#a5HCjGwkx" opacity="1" fill-opacity="0" stroke="#000000" stroke-width="1" stroke-opacity="0"></use></g></g><g><use xlink:href="#a2MT22H8MK" opacity="1" fill="#f39c12" fill-opacity="1"></use><g><use xlink:href="#a2MT22H8MK" opacity="1" fill-opacity="0" stroke="#000000" stroke-width="1" stroke-opacity="0"></use></g></g><g><use xlink:href="#azrsHyuyw" opacity="1" fill="#f39c12" fill-opacity="1"></use><g><use xlink:href="#azrsHyuyw" opacity="1" fill-opacity="0" stroke="#000000" stroke-width="1" stroke-opacity="0"></use></g></g><g><use xlink:href="#a4Q3ij5LK" opacity="1" fill="#f2f1ef" fill-opacity="1"></use><g><use xlink:href="#a4Q3ij5LK" opacity="1" fill-opacity="0" stroke="#000000" stroke-width="1" stroke-opacity="0"></use></g></g><g><use xlink:href="#g15r0My2Cj" opacity="1" fill="#f2f1ef" fill-opacity="1"></use><g><use xlink:href="#g15r0My2Cj" opacity="1" fill-opacity="0" stroke="#000000" stroke-width="1" stroke-opacity="0"></use></g></g><g><use xlink:href="#g5hXOlC6Qc" opacity="1" fill="#f2f1ef" fill-opacity="1"></use><g><use xlink:href="#g5hXOlC6Qc" opacity="1" fill-opacity="0" stroke="#000000" stroke-width="1" stroke-opacity="0"></use></g></g><g><use xlink:href="#b2gUHDMf8N" opacity="1" fill="#f2f1ef" fill-opacity="1"></use><g><use xlink:href="#b2gUHDMf8N" opacity="1" fill-opacity="0" stroke="#000000" stroke-width="1" stroke-opacity="0"></use></g></g><g><use xlink:href="#h1S4zLEEi2" opacity="1" fill="#f2f1ef" fill-opacity="1"></use><g><use xlink:href="#h1S4zLEEi2" opacity="1" fill-opacity="0" stroke="#000000" stroke-width="1" stroke-opacity="0"></use></g></g><g><use xlink:href="#gLix10Dg7" opacity="1" fill="#f2f1ef" fill-opacity="1"></use><g><use xlink:href="#gLix10Dg7" opacity="1" fill-opacity="0" stroke="#000000" stroke-width="1" stroke-opacity="0"></use></g></g><g><use xlink:href="#bgocCHxGr" opacity="1" fill="#f2f1ef" fill-opacity="1"></use><g><use xlink:href="#bgocCHxGr" opacity="1" fill-opacity="0" stroke="#000000" stroke-width="1" stroke-opacity="0"></use></g></g><g><use xlink:href="#eAz2wwasV" opacity="1" fill="#f2f1ef" fill-opacity="1"></use><g><use xlink:href="#eAz2wwasV" opacity="1" fill-opacity="0" stroke="#000000" stroke-width="1" stroke-opacity="0"></use></g></g><g><use xlink:href="#a2nPAO7D22" opacity="1" fill="#f2f1ef" fill-opacity="1"></use><g><use xlink:href="#a2nPAO7D22" opacity="1" fill-opacity="0" stroke="#000000" stroke-width="1" stroke-opacity="0"></use></g></g><g><use xlink:href="#a8hJhA0DF" opacity="1" fill="#f2f1ef" fill-opacity="1"></use><g><use xlink:href="#a8hJhA0DF" opacity="1" fill-opacity="0" stroke="#000000" stroke-width="1" stroke-opacity="0"></use></g></g><g><use xlink:href="#bgn9EmCnU" opacity="1" fill="#f39c12" fill-opacity="1"></use><g><use xlink:href="#bgn9EmCnU" opacity="1" fill-opacity="0" stroke="#000000" stroke-width="1" stroke-opacity="0"></use></g></g></g></svg>