<?xml version="1.0" encoding="UTF-8" standalone="no"?>
<!DOCTYPE svg PUBLIC "-//W3C//DTD SVG 1.1//EN" "http://www.w3.org/Graphics/SVG/1.1/DTD/svg11.dtd">
<svg version="1.1" xmlns="http://www.w3.org/2000/svg" xmlns:xlink="http://www.w3.org/1999/xlink" preserveAspectRatio="xMidYMid meet" viewBox="147.250652016129 147.74932258064513 347.50230282258076 346.50475483870974" width="343.5" height="342.5"><defs><path d="M331.57 149.15L338.27 149.72L344.89 150.55L351.43 151.61L357.89 152.91L364.26 154.45L370.53 156.22L376.71 158.22L382.78 160.44L388.74 162.88L394.59 165.54L400.32 168.41L405.92 171.5L411.4 174.78L416.74 178.27L421.95 181.96L427 185.84L431.92 189.92L436.67 194.18L441.27 198.62L445.71 203.25L449.97 208.05L454.06 213.02L457.98 218.16L461.71 223.47L465.25 228.94L468.59 234.57L471.74 240.35L474.69 246.28L477.43 252.36L479.95 258.58L482.25 264.95L484.33 271.44L486.19 278.07L487.81 284.83L489.19 291.72L490.28 298.59L491.07 305.45L491.56 312.3L491.75 319.13L491.66 325.93L491.28 332.7L490.63 339.42L489.71 346.09L488.51 352.7L487.06 359.25L485.35 365.73L483.39 372.13L481.18 378.44L478.73 384.65L476.05 390.77L473.13 396.77L469.99 402.66L466.64 408.43L463.07 414.06L459.29 419.56L455.3 424.91L451.12 430.11L446.75 435.15L442.19 440.02L437.45 444.72L432.53 449.23L427.44 453.55L422.18 457.68L416.76 461.6L411.19 465.31L405.47 468.81L399.6 472.07L393.59 475.11L387.45 477.9L381.18 480.44L374.78 482.73L368.27 484.76L361.65 486.51L354.91 487.99L348.08 489.19L344.95 489.64L341.84 490.03L338.74 490.37L335.66 490.65L332.58 490.88L329.52 491.06L326.46 491.18L323.42 491.24L320.39 491.25L317.37 491.21L314.37 491.12L311.37 490.97L308.38 490.77L305.41 490.52L302.45 490.22L299.49 489.86L296.55 489.46L293.62 489L290.7 488.49L287.79 487.94L284.89 487.33L282 486.67L279.11 485.96L276.24 485.21L273.38 484.4L270.53 483.55L267.69 482.65L264.85 481.7L262.03 480.71L259.22 479.66L256.41 478.57L253.62 477.44L250.83 476.26L248.05 475.03L245.28 473.75L242.52 472.43L239.77 471.07L237.02 469.66L234.29 468.21L231.56 466.71L231.24 466.51L230.91 466.32L230.58 466.13L230.24 465.96L229.9 465.79L229.56 465.63L229.22 465.48L228.87 465.34L228.52 465.21L228.17 465.08L227.81 464.96L227.46 464.86L227.1 464.76L226.74 464.66L226.38 464.58L226.01 464.51L225.65 464.44L225.28 464.38L224.91 464.34L224.54 464.3L224.17 464.26L223.8 464.24L223.43 464.23L223.06 464.22L222.69 464.22L222.31 464.24L221.94 464.26L221.57 464.29L221.2 464.32L220.83 464.37L220.46 464.42L220.09 464.49L219.72 464.56L219.35 464.64L218.99 464.73L218.63 464.83L218.26 464.94L217.9 465.06L217.54 465.18L217.19 465.32L215.83 465.78L214.47 466.25L213.11 466.71L211.76 467.17L210.4 467.63L209.03 468.09L207.67 468.55L206.31 469.01L204.94 469.47L203.58 469.93L202.21 470.39L200.84 470.84L199.47 471.3L198.09 471.76L196.72 472.21L195.34 472.67L193.96 473.12L192.58 473.58L191.19 474.03L189.8 474.49L188.41 474.95L187.01 475.4L185.61 475.86L184.21 476.32L182.81 476.77L181.4 477.23L179.98 477.69L178.57 478.15L177.15 478.61L175.72 479.07L174.29 479.53L172.86 479.99L171.42 480.46L169.98 480.92L168.53 481.39L167.08 481.86L165.62 482.33L164.16 482.8L162.69 483.27L161.21 483.74L161.69 482.32L162.16 480.9L162.63 479.48L163.1 478.07L163.56 476.66L164.03 475.26L164.49 473.86L164.95 472.47L165.41 471.08L165.87 469.69L166.32 468.31L166.78 466.93L167.23 465.56L167.68 464.19L168.14 462.83L168.59 461.46L169.04 460.1L169.49 458.75L169.94 457.39L170.38 456.05L170.83 454.7L171.28 453.35L171.73 452.01L172.18 450.68L172.63 449.34L173.07 448.01L173.52 446.68L173.97 445.35L174.42 444.02L174.88 442.7L175.33 441.38L175.78 440.06L176.24 438.74L176.69 437.42L177.15 436.1L177.61 434.79L178.07 433.48L178.53 432.17L178.99 430.86L179.46 429.55L179.6 429.21L179.73 428.88L179.85 428.54L179.96 428.2L180.06 427.86L180.15 427.51L180.24 427.17L180.31 426.82L180.38 426.47L180.43 426.13L180.48 425.78L180.52 425.43L180.55 425.08L180.57 424.73L180.59 424.37L180.59 424.02L180.59 423.67L180.57 423.32L180.55 422.97L180.52 422.62L180.48 422.27L180.43 421.93L180.37 421.58L180.31 421.24L180.23 420.89L180.15 420.55L180.06 420.21L179.96 419.88L179.85 419.54L179.73 419.21L179.61 418.88L179.47 418.55L179.33 418.23L179.18 417.91L179.02 417.59L178.85 417.27L178.67 416.96L178.49 416.65L178.29 416.35L178.09 416.05L176.68 413.72L175.29 411.39L173.93 409.04L172.61 406.69L171.31 404.32L170.04 401.95L168.81 399.56L167.61 397.17L166.43 394.77L165.29 392.35L164.19 389.93L163.11 387.5L162.07 385.05L161.06 382.6L160.09 380.13L159.16 377.66L158.25 375.17L157.39 372.67L156.56 370.16L155.76 367.65L155.01 365.11L154.29 362.57L153.61 360.02L152.97 357.46L152.36 354.88L151.8 352.29L151.28 349.69L150.79 347.08L150.35 344.46L149.95 341.82L149.59 339.18L149.27 336.52L148.99 333.84L148.76 331.16L148.57 328.46L148.42 325.75L148.32 323.03L148.26 320.3L148.25 317.55L148.28 314.79L148.52 308.6L149 302.45L149.7 296.35L150.63 290.31L151.78 284.33L153.14 278.42L154.72 272.57L156.5 266.8L158.49 261.11L160.68 255.5L163.06 249.98L165.63 244.55L168.39 239.23L171.32 234L174.44 228.89L177.73 223.88L181.18 219L184.8 214.23L188.58 209.59L192.52 205.09L196.61 200.72L200.84 196.5L205.21 192.42L209.73 188.49L214.38 184.71L219.15 181.1L224.05 177.65L229.08 174.38L234.21 171.28L239.46 168.36L244.82 165.62L250.28 163.07L255.84 160.72L261.5 158.56L267.24 156.61L273.07 154.87L278.98 153.35L284.97 152.04L291.03 150.95L297.16 150.09L304.15 149.38L311.09 148.93L317.98 148.75L324.81 148.82L331.57 149.15ZM259.35 226.86L258.66 226.89L257.55 226.96L256.46 227.05L255.4 227.16L254.35 227.28L253.34 227.42L252.34 227.58L251.36 227.76L250.41 227.95L249.48 228.16L248.56 228.39L247.67 228.64L246.8 228.91L245.95 229.19L245.11 229.49L244.3 229.82L243.5 230.16L242.73 230.52L241.97 230.9L241.23 231.3L240.5 231.72L239.79 232.15L239.1 232.61L238.42 233.09L237.76 233.59L237.12 234.11L236.49 234.65L235.88 235.21L235.27 235.79L234.69 236.39L234.11 237.02L233.56 237.66L233.01 238.33L232.47 239.01L231.95 239.72L231.44 240.45L230.94 241.2L230.46 241.98L229.98 242.78L229.51 243.6L229.06 244.44L228.15 246.21L227.3 247.99L226.5 249.76L225.76 251.54L225.07 253.31L224.43 255.08L223.85 256.86L223.32 258.63L222.84 260.4L222.41 262.16L222.04 263.93L221.72 265.7L221.44 267.46L221.22 269.22L221.05 270.98L220.93 272.74L220.87 274.49L220.85 276.24L220.88 277.99L220.96 279.74L221.09 281.48L221.27 283.22L221.49 284.95L221.77 286.68L222.09 288.41L222.46 290.14L222.88 291.85L223.35 293.57L223.86 295.28L224.42 296.99L225.03 298.69L225.68 300.38L226.38 302.08L227.13 303.76L227.92 305.44L228.75 307.12L229.63 308.79L230.56 310.45L231.53 312.1L232.54 313.75L234.81 317.34L237.1 320.89L239.43 324.39L241.8 327.86L244.2 331.28L246.64 334.66L249.11 337.99L251.62 341.27L254.17 344.51L256.76 347.7L259.4 350.84L262.07 353.92L264.79 356.95L267.55 359.93L270.36 362.86L273.21 365.72L276.11 368.53L279.06 371.28L282.06 373.97L285.11 376.6L288.21 379.17L291.36 381.67L294.56 384.11L297.82 386.48L301.14 388.78L304.51 391.01L307.93 393.18L311.42 395.27L314.96 397.29L318.56 399.24L322.23 401.11L325.96 402.91L329.74 404.63L333.6 406.27L337.52 407.83L341.5 409.31L345.55 410.71L349.67 412.03L353.86 413.26L358.12 414.4L359.43 414.75L360.75 415.07L362.08 415.37L363.4 415.63L364.74 415.86L366.07 416.06L367.4 416.24L368.74 416.38L370.08 416.5L371.41 416.58L372.75 416.64L374.09 416.66L375.43 416.66L376.76 416.63L378.09 416.57L379.42 416.48L380.75 416.36L382.08 416.22L383.4 416.04L384.71 415.84L386.02 415.6L387.33 415.34L388.63 415.05L389.93 414.74L391.22 414.39L392.5 414.02L393.77 413.62L395.03 413.19L396.29 412.73L397.54 412.24L398.78 411.73L400.01 411.19L401.22 410.62L402.43 410.03L403.63 409.41L404.81 408.76L405.98 408.08L407.14 407.37L408.29 406.64L409.42 405.88L410.37 405.25L411.3 404.59L412.19 403.92L413.06 403.24L413.9 402.54L414.71 401.82L415.49 401.09L416.24 400.35L416.96 399.59L417.65 398.82L418.32 398.03L418.96 397.23L419.57 396.41L420.15 395.58L420.7 394.74L421.23 393.89L421.72 393.02L422.19 392.14L422.63 391.24L423.04 390.34L423.43 389.42L423.78 388.48L424.11 387.54L424.41 386.58L424.69 385.61L424.93 384.63L425.15 383.64L425.34 382.64L425.5 381.62L425.64 380.6L425.75 379.56L425.83 378.51L425.88 377.45L425.91 376.38L425.91 375.3L425.88 374.21L425.82 373.11L425.74 372L425.63 370.88L425.5 369.75L425.45 369.54L425.4 369.33L425.35 369.12L425.29 368.91L425.23 368.71L425.16 368.5L425.09 368.3L425.01 368.1L424.93 367.9L424.85 367.7L424.76 367.5L424.67 367.31L424.58 367.12L424.48 366.93L424.37 366.74L424.27 366.55L424.16 366.37L424.04 366.19L423.92 366.01L423.8 365.84L423.68 365.67L423.55 365.5L423.42 365.33L423.28 365.16L423.14 365L423 364.84L422.85 364.69L422.71 364.53L422.55 364.38L422.4 364.23L422.24 364.09L422.08 363.95L421.91 363.81L421.74 363.68L421.57 363.55L421.4 363.42L421.22 363.29L421.04 363.17L420.86 363.06L420.67 362.94L419.69 362.44L418.71 361.94L417.72 361.44L416.74 360.94L415.75 360.45L414.77 359.96L413.78 359.46L412.79 358.97L411.8 358.48L410.82 358L409.83 357.51L408.84 357.02L407.84 356.54L406.85 356.06L405.86 355.58L404.87 355.1L403.88 354.62L402.88 354.14L401.89 353.66L400.9 353.18L399.9 352.7L398.91 352.23L397.91 351.75L396.92 351.28L395.92 350.8L394.93 350.33L393.93 349.85L392.94 349.38L391.94 348.91L390.95 348.43L389.95 347.96L388.96 347.49L387.96 347.01L386.97 346.54L385.98 346.07L384.98 345.59L383.99 345.12L382.99 344.64L382 344.17L381.01 343.69L380.67 343.5L380.33 343.33L379.98 343.17L379.63 343.03L379.28 342.9L378.92 342.79L378.56 342.69L378.2 342.61L377.84 342.54L377.48 342.49L377.12 342.45L376.75 342.42L376.39 342.41L376.03 342.41L375.67 342.42L375.31 342.45L374.95 342.49L374.59 342.55L374.24 342.62L373.89 342.7L373.54 342.79L373.2 342.9L372.86 343.02L372.52 343.16L372.19 343.31L371.87 343.46L371.55 343.64L371.23 343.82L370.93 344.02L370.63 344.23L370.34 344.45L370.05 344.68L369.77 344.93L369.51 345.18L369.25 345.45L369 345.73L368.76 346.02L368.53 346.33L368.31 346.64L368.1 346.97L367.81 347.35L367.51 347.74L367.21 348.13L366.9 348.51L366.6 348.89L366.3 349.28L365.99 349.66L365.68 350.04L365.38 350.42L365.07 350.8L364.76 351.18L364.45 351.56L364.14 351.94L363.83 352.33L363.52 352.71L363.21 353.09L362.9 353.47L362.59 353.85L362.28 354.23L361.97 354.61L361.66 355L361.35 355.38L361.05 355.76L360.74 356.15L360.44 356.53L360.13 356.92L359.83 357.3L359.53 357.69L359.23 358.08L358.94 358.47L358.64 358.86L358.35 359.26L358.06 359.65L357.77 360.05L357.49 360.44L357.2 360.84L356.92 361.24L356.65 361.64L356.37 362.05L356.1 362.45L355.79 362.91L355.47 363.35L355.15 363.77L354.83 364.17L354.5 364.55L354.17 364.91L353.84 365.25L353.5 365.58L353.16 365.88L352.81 366.16L352.46 366.43L352.11 366.68L351.75 366.9L351.39 367.11L351.02 367.31L350.65 367.48L350.28 367.64L349.9 367.78L349.52 367.9L349.13 368.01L348.74 368.09L348.35 368.17L347.95 368.22L347.54 368.26L347.13 368.28L346.72 368.29L346.3 368.28L345.88 368.25L345.46 368.21L345.02 368.16L344.59 368.09L344.15 368L343.7 367.9L343.25 367.78L342.79 367.65L342.33 367.51L341.87 367.35L341.4 367.17L340.92 366.99L340.44 366.79L338.42 365.9L336.41 364.98L334.42 364.04L332.45 363.06L330.5 362.05L328.56 361.01L326.65 359.94L324.75 358.84L322.88 357.7L321.02 356.55L319.18 355.36L317.37 354.14L315.57 352.89L313.8 351.62L312.05 350.32L310.32 348.99L308.61 347.63L306.92 346.25L305.26 344.83L303.62 343.4L302 341.93L300.41 340.44L298.84 338.93L297.29 337.39L295.77 335.82L294.27 334.23L292.8 332.62L291.36 330.98L289.94 329.31L288.55 327.63L287.18 325.92L285.84 324.18L284.53 322.43L283.24 320.65L281.99 318.85L280.76 317.03L279.56 315.18L278.38 313.32L277.24 311.43L276.13 309.52L276.05 309.31L275.98 309.09L275.91 308.88L275.85 308.66L275.79 308.45L275.74 308.23L275.69 308.01L275.65 307.79L275.61 307.57L275.57 307.35L275.55 307.13L275.52 306.91L275.5 306.68L275.49 306.46L275.48 306.24L275.48 306.02L275.48 305.8L275.49 305.57L275.5 305.35L275.51 305.13L275.54 304.91L275.56 304.69L275.59 304.47L275.63 304.25L275.67 304.03L275.71 303.82L275.76 303.6L275.82 303.38L275.88 303.17L275.94 302.96L276.01 302.74L276.09 302.53L276.17 302.32L276.25 302.11L276.34 301.91L276.43 301.7L276.53 301.5L276.63 301.3L276.74 301.1L276.85 300.9L277.08 300.57L277.3 300.24L277.53 299.9L277.76 299.57L277.99 299.24L278.22 298.91L278.45 298.59L278.69 298.26L278.92 297.93L279.16 297.61L279.4 297.29L279.64 296.96L279.89 296.64L280.13 296.32L280.38 296.01L280.62 295.69L280.87 295.37L281.12 295.06L281.38 294.75L281.63 294.43L281.89 294.12L282.14 293.81L282.4 293.51L282.66 293.2L282.92 292.89L283.18 292.59L283.45 292.29L283.71 291.98L283.98 291.68L284.25 291.38L284.52 291.09L284.79 290.79L285.07 290.49L285.34 290.2L285.62 289.91L285.89 289.62L286.17 289.33L286.45 289.04L286.74 288.75L287.02 288.46L287.36 288.11L287.68 287.75L288 287.39L288.29 287.01L288.58 286.63L288.85 286.23L289.11 285.84L289.35 285.43L289.58 285.02L289.8 284.6L290 284.18L290.19 283.75L290.36 283.31L290.52 282.88L290.67 282.43L290.8 281.99L290.92 281.54L291.02 281.08L291.11 280.63L291.19 280.17L291.25 279.71L291.3 279.24L291.33 278.78L291.34 278.32L291.35 277.85L291.34 277.38L291.31 276.92L291.27 276.45L291.21 275.99L291.14 275.52L291.05 275.06L290.95 274.6L290.84 274.14L290.71 273.68L290.56 273.23L290.4 272.78L290.22 272.33L290.03 271.89L289.82 271.45L289.6 271.02L289.25 270.2L288.89 269.38L288.54 268.56L288.18 267.75L287.83 266.93L287.47 266.11L287.11 265.3L286.75 264.48L286.4 263.66L286.04 262.84L285.68 262.03L285.32 261.21L284.96 260.39L284.6 259.58L284.25 258.76L283.89 257.94L283.53 257.12L283.18 256.31L282.82 255.49L282.47 254.67L282.11 253.85L281.76 253.03L281.41 252.21L281.06 251.39L280.71 250.57L280.37 249.74L280.02 248.92L279.68 248.1L279.34 247.27L279 246.45L278.66 245.62L278.33 244.79L278 243.97L277.67 243.14L277.34 242.31L277.01 241.48L276.69 240.64L276.37 239.81L276.06 238.98L275.74 238.14L275.51 237.5L275.27 236.88L275.02 236.28L274.77 235.71L274.51 235.15L274.24 234.61L273.97 234.09L273.68 233.59L273.39 233.11L273.09 232.65L272.78 232.21L272.46 231.79L272.14 231.38L271.8 231L271.45 230.63L271.09 230.28L270.72 229.95L270.34 229.64L269.95 229.34L269.55 229.06L269.14 228.8L268.71 228.56L268.27 228.33L267.82 228.12L267.36 227.93L266.88 227.75L266.39 227.59L265.89 227.44L265.37 227.31L264.84 227.2L264.29 227.1L263.73 227.02L263.15 226.95L262.56 226.9L261.95 226.86L261.32 226.84L260.68 226.83L260.02 226.84L259.35 226.86Z" id="a4GWpnooo"></path></defs><g><g><use xlink:href="#a4GWpnooo" opacity="1" fill="#f39c12" fill-opacity="1"></use><g><use xlink:href="#a4GWpnooo" opacity="1" fill-opacity="0" stroke="#000000" stroke-width="1" stroke-opacity="0"></use></g></g></g></svg>