<?xml version="1.0" encoding="UTF-8" standalone="no"?>
<!DOCTYPE svg PUBLIC "-//W3C//DTD SVG 1.1//EN" "http://www.w3.org/Graphics/SVG/1.1/DTD/svg11.dtd">
<svg version="1.1" xmlns="http://www.w3.org/2000/svg" xmlns:xlink="http://www.w3.org/1999/xlink" preserveAspectRatio="xMidYMid meet" viewBox="153.2879500473716 139.93872258064525 335.3965613122207 362.1235741935483" width="331.4" height="358.12"><defs><path d="M328.81 141.03L333.03 141.17L337.25 141.37L341.47 141.62L345.69 141.94L349.9 142.32L354.12 142.77L358.33 143.27L362.54 143.84L366.74 144.48L370.95 145.18L375.15 145.94L379.35 146.77L383.54 147.66L387.74 148.62L391.93 149.65L396.12 150.74L400.31 151.9L404.49 153.13L408.67 154.43L412.85 155.79L415.35 156.66L417.8 157.57L420.21 158.52L422.57 159.52L424.89 160.56L427.17 161.64L429.4 162.77L431.59 163.94L433.73 165.15L435.83 166.4L437.88 167.7L439.88 169.04L441.84 170.42L443.76 171.85L445.63 173.32L447.45 174.83L449.22 176.39L450.95 177.98L452.63 179.62L454.27 181.31L455.85 183.03L457.39 184.8L458.88 186.61L460.32 188.47L461.72 190.36L463.06 192.3L464.36 194.29L465.6 196.31L466.8 198.38L467.94 200.49L469.04 202.65L470.09 204.84L471.08 207.08L472.03 209.36L472.92 211.69L473.76 214.05L474.56 216.46L475.3 218.92L475.98 221.41L476.62 223.95L477.06 225.83L477.5 227.7L477.92 229.59L478.33 231.47L478.73 233.36L479.12 235.24L479.5 237.13L479.87 239.02L480.22 240.92L480.57 242.81L480.9 244.71L481.22 246.61L481.53 248.51L481.83 250.41L482.12 252.32L482.4 254.22L482.66 256.13L482.92 258.04L483.16 259.95L483.4 261.86L483.62 263.78L483.83 265.69L484.03 267.61L484.21 269.52L484.39 271.44L484.55 273.36L484.71 275.28L484.85 277.2L484.98 279.12L485.1 281.04L485.21 282.97L485.31 284.89L485.39 286.82L485.47 288.74L485.53 290.67L485.58 292.6L485.62 294.52L485.65 296.45L485.67 298.38L485.68 300.31L485.68 302.22L485.68 304.13L485.66 306.04L485.63 307.95L485.59 309.86L485.54 311.77L485.48 313.67L485.4 315.58L485.32 317.49L485.22 319.39L485.11 321.3L484.98 323.2L484.85 325.1L484.7 327L484.54 328.91L484.38 330.8L484.19 332.7L484 334.6L483.8 336.5L483.58 338.39L483.35 340.28L483.11 342.18L482.86 344.07L482.6 345.96L482.32 347.84L482.04 349.73L481.74 351.61L481.43 353.49L481.11 355.37L480.77 357.25L480.43 359.13L480.07 361L479.7 362.88L479.32 364.75L478.93 366.61L478.53 368.48L478.11 370.34L477.69 372.21L477.25 374.07L476.8 375.92L476.12 378.57L475.38 381.17L474.59 383.72L473.74 386.22L472.83 388.67L471.87 391.08L470.86 393.44L469.78 395.75L468.66 398.01L467.48 400.22L466.25 402.39L464.96 404.51L463.62 406.58L462.23 408.6L460.79 410.58L459.29 412.51L457.74 414.39L456.15 416.23L454.5 418.02L452.8 419.76L451.05 421.45L449.25 423.1L447.4 424.7L445.5 426.26L443.55 427.77L441.56 429.23L439.51 430.64L437.42 432.01L435.28 433.34L433.1 434.61L430.86 435.85L428.58 437.03L426.26 438.17L423.89 439.27L421.47 440.32L419.01 441.32L416.5 442.28L413.95 443.19L411.36 444.06L408.72 444.88L406.13 445.64L403.53 446.37L400.92 447.08L398.32 447.76L395.71 448.41L393.1 449.04L390.49 449.64L387.87 450.21L385.25 450.76L382.63 451.29L380.01 451.79L377.38 452.26L374.75 452.71L372.12 453.14L369.49 453.54L366.85 453.92L364.21 454.27L361.57 454.6L358.93 454.91L356.28 455.2L353.64 455.46L350.99 455.7L348.33 455.92L345.68 456.11L343.02 456.28L340.36 456.44L337.7 456.57L335.04 456.68L332.37 456.77L329.7 456.84L327.03 456.88L324.36 456.91L321.69 456.92L319.01 456.91L316.33 456.88L313.65 456.83L310.97 456.76L308.29 456.67L305.6 456.56L302.92 456.44L302.39 456.38L301.86 456.34L301.33 456.32L300.81 456.3L300.28 456.31L299.76 456.32L299.24 456.35L298.72 456.4L298.2 456.46L297.69 456.53L297.18 456.62L296.67 456.72L296.17 456.83L295.67 456.96L295.17 457.1L294.68 457.25L294.19 457.42L293.71 457.59L293.23 457.79L292.76 457.99L292.3 458.21L291.84 458.44L291.38 458.68L290.93 458.93L290.49 459.2L290.06 459.47L289.63 459.76L289.21 460.06L288.8 460.38L288.4 460.7L288 461.03L287.61 461.38L287.24 461.74L286.87 462.11L286.51 462.49L286.15 462.88L285.81 463.28L285.48 463.69L285.16 464.11L284.85 464.54L284.24 465.32L283.62 466.1L283 466.88L282.38 467.65L281.76 468.42L281.13 469.19L280.5 469.96L279.87 470.72L279.24 471.48L278.6 472.24L277.96 473L277.32 473.76L276.67 474.51L276.02 475.26L275.37 476.01L274.72 476.76L274.06 477.5L273.4 478.24L272.74 478.98L272.08 479.72L271.41 480.45L270.74 481.19L270.07 481.92L269.4 482.64L268.72 483.37L268.04 484.09L267.36 484.81L266.68 485.53L265.99 486.25L265.3 486.96L264.61 487.67L263.92 488.38L263.22 489.09L262.52 489.79L261.82 490.49L261.11 491.19L260.41 491.89L259.7 492.58L258.99 493.27L258.27 493.96L258 494.21L257.71 494.46L257.41 494.71L257.09 494.96L256.76 495.2L256.42 495.43L256.07 495.67L255.71 495.9L255.34 496.12L254.97 496.34L254.58 496.55L254.19 496.76L253.79 496.96L253.39 497.15L252.98 497.34L252.57 497.52L252.15 497.69L251.73 497.85L251.31 498.01L250.89 498.15L250.46 498.29L250.04 498.41L249.62 498.53L249.2 498.64L248.78 498.73L248.37 498.82L247.96 498.89L247.56 498.95L247.16 499L246.76 499.03L246.38 499.05L246 499.06L245.63 499.06L245.27 499.04L244.91 499L244.57 498.96L244.24 498.89L243.93 498.81L243.62 498.72L243.33 498.61L243.05 498.48L242.76 498.33L242.48 498.16L242.21 497.97L241.93 497.76L241.66 497.53L241.39 497.29L241.13 497.04L240.87 496.76L240.61 496.48L240.36 496.18L240.11 495.86L239.86 495.54L239.62 495.2L239.38 494.85L239.15 494.49L238.92 494.12L238.7 493.75L238.49 493.36L238.28 492.97L238.07 492.57L237.88 492.17L237.68 491.76L237.5 491.35L237.32 490.93L237.15 490.51L236.98 490.09L236.83 489.66L236.68 489.24L236.54 488.81L236.4 488.39L236.28 487.97L236.16 487.54L236.05 487.13L235.95 486.71L235.86 486.3L235.78 485.9L235.7 485.5L235.64 485.11L235.59 484.72L235.5 483.95L235.43 483.17L235.36 482.39L235.3 481.61L235.25 480.83L235.21 480.05L235.17 479.27L235.14 478.48L235.11 477.7L235.09 476.91L235.07 476.13L235.06 475.34L235.05 474.55L235.04 473.76L235.04 472.97L235.04 472.18L235.05 471.39L235.05 470.6L235.06 469.81L235.07 469.01L235.08 468.22L235.09 467.43L235.1 466.63L235.11 465.84L235.12 465.05L235.13 464.25L235.14 463.46L235.15 462.67L235.15 461.88L235.15 461.08L235.15 460.29L235.15 459.5L235.14 458.71L235.12 457.92L235.11 457.13L235.09 456.34L235.06 455.55L235.03 454.76L234.99 453.97L234.94 453.19L234.92 452.94L234.89 452.69L234.86 452.43L234.81 452.17L234.76 451.91L234.7 451.64L234.63 451.36L234.55 451.09L234.47 450.81L234.38 450.53L234.29 450.25L234.18 449.97L234.08 449.69L233.96 449.41L233.84 449.13L233.72 448.85L233.58 448.57L233.45 448.3L233.31 448.03L233.16 447.77L233.01 447.51L232.86 447.25L232.7 447L232.54 446.76L232.37 446.52L232.2 446.29L232.03 446.07L231.85 445.85L231.67 445.65L231.49 445.45L231.31 445.26L231.13 445.09L230.94 444.92L230.75 444.77L230.56 444.63L230.37 444.5L230.18 444.39L229.99 444.29L229.79 444.2L229.6 444.13L226.43 443.02L223.35 441.84L220.34 440.6L217.41 439.29L214.55 437.92L211.78 436.48L209.08 434.99L206.46 433.42L203.91 431.8L201.44 430.12L199.04 428.38L196.71 426.57L194.46 424.71L192.28 422.79L190.17 420.82L188.13 418.79L186.16 416.7L184.26 414.56L182.43 412.37L180.66 410.12L178.97 407.82L177.34 405.47L175.78 403.07L174.29 400.62L172.86 398.11L171.49 395.56L170.19 392.97L168.95 390.32L167.77 387.63L166.66 384.9L165.61 382.12L164.61 379.3L163.68 376.43L162.81 373.52L161.99 370.57L161.24 367.58L160.54 364.55L159.9 361.48L159.32 358.37L158.79 355.23L158.3 352.18L157.83 349.12L157.4 346.07L156.99 343.01L156.62 339.95L156.27 336.88L155.95 333.82L155.65 330.75L155.39 327.68L155.15 324.61L154.95 321.53L154.77 318.46L154.62 315.38L154.49 312.31L154.4 309.23L154.33 306.16L154.3 303.08L154.29 300L154.31 296.92L154.35 293.85L154.43 290.77L154.53 287.7L154.67 284.62L154.83 281.55L155.02 278.48L155.23 275.41L155.48 272.34L155.75 269.27L156.05 266.21L156.38 263.15L156.74 260.09L157.13 257.03L157.54 253.98L157.99 250.93L158.46 247.88L158.96 244.83L159.49 241.79L160.04 238.76L160.63 235.72L161.24 232.7L162 229.3L162.84 225.98L163.75 222.73L164.74 219.55L165.79 216.44L166.92 213.41L168.11 210.44L169.38 207.55L170.71 204.72L172.12 201.97L173.59 199.29L175.13 196.67L176.74 194.12L178.42 191.65L180.16 189.24L181.97 186.9L183.85 184.62L185.79 182.42L187.79 180.28L189.86 178.21L192 176.2L194.2 174.26L196.46 172.39L198.78 170.58L201.17 168.83L203.62 167.16L206.13 165.54L208.7 163.99L211.33 162.5L214.03 161.08L216.78 159.72L219.59 158.42L222.46 157.19L225.39 156.02L228.37 154.91L231.42 153.86L234.52 152.87L237.67 151.94L240.89 151.08L244.15 150.27L248.39 149.3L252.63 148.38L256.87 147.5L261.11 146.69L265.35 145.92L269.58 145.21L273.82 144.54L278.06 143.94L282.29 143.39L286.53 142.89L290.76 142.45L294.99 142.06L299.22 141.73L303.45 141.46L307.68 141.24L311.91 141.08L316.14 140.98L320.37 140.94L324.59 140.96L328.81 141.03ZM311.55 165.1L307.88 165.23L304.2 165.42L300.53 165.65L296.85 165.93L293.18 166.26L289.52 166.64L285.85 167.07L282.2 167.54L278.54 168.06L274.89 168.63L271.25 169.25L267.61 169.91L263.98 170.63L260.36 171.39L256.74 172.2L253.14 173.06L250.16 173.81L247.24 174.63L244.39 175.5L241.6 176.42L238.87 177.41L236.2 178.45L233.6 179.56L231.06 180.71L228.58 181.93L226.16 183.21L223.81 184.54L221.52 185.93L219.29 187.37L217.12 188.88L215.02 190.44L212.97 192.05L210.99 193.73L209.07 195.46L207.21 197.25L205.42 199.1L203.69 201L202.01 202.96L200.41 204.98L198.86 207.05L197.37 209.18L195.95 211.37L194.59 213.61L193.28 215.91L192.05 218.27L190.87 220.68L189.75 223.15L188.7 225.67L187.71 228.25L186.77 230.89L185.91 233.59L185.1 236.34L184.35 239.14L183.66 242L183.04 244.92L182.48 247.9L182.03 250.47L181.6 253.05L181.19 255.62L180.81 258.2L180.44 260.78L180.09 263.36L179.76 265.94L179.46 268.52L179.17 271.11L178.91 273.69L178.66 276.27L178.44 278.86L178.25 281.44L178.07 284.03L177.92 286.61L177.79 289.2L177.68 291.78L177.6 294.37L177.54 296.95L177.51 299.54L177.5 302.12L177.51 304.71L177.55 307.29L177.61 309.88L177.7 312.46L177.82 315.05L177.96 317.63L178.13 320.21L178.32 322.79L178.54 325.37L178.79 327.95L179.06 330.53L179.36 333.11L179.69 335.69L180.05 338.26L180.44 340.84L180.85 343.41L181.3 345.98L181.77 348.55L182.27 351.12L182.77 353.52L183.32 355.9L183.9 358.24L184.52 360.56L185.18 362.84L185.89 365.1L186.63 367.33L187.42 369.52L188.25 371.68L189.12 373.81L190.04 375.91L191 377.97L192 380L193.05 382L194.14 383.96L195.28 385.88L196.47 387.77L197.7 389.62L198.98 391.44L200.3 393.21L201.68 394.95L203.1 396.65L204.57 398.31L206.09 399.94L207.66 401.52L209.28 403.06L210.95 404.56L212.68 406.01L214.45 407.43L216.28 408.8L218.15 410.13L220.08 411.42L222.07 412.66L224.11 413.85L226.2 415L228.35 416.11L230.55 417.16L232.81 418.17L235.13 419.14L237.5 420.05L237.95 420.22L238.39 420.4L238.81 420.58L239.22 420.76L239.62 420.95L240 421.14L240.36 421.34L240.71 421.54L241.05 421.75L241.37 421.96L241.67 422.18L241.97 422.41L242.25 422.64L242.52 422.88L242.77 423.12L243.01 423.37L243.24 423.63L243.46 423.89L243.67 424.16L243.86 424.44L244.04 424.73L244.21 425.02L244.37 425.33L244.51 425.64L244.65 425.96L244.77 426.29L244.89 426.63L244.99 426.97L245.08 427.33L245.17 427.7L245.24 428.07L245.31 428.46L245.36 428.86L245.41 429.27L245.44 429.69L245.47 430.12L245.49 430.56L245.5 431.01L245.5 431.47L245.5 431.95L245.47 433.32L245.45 434.69L245.43 436.06L245.41 437.43L245.4 438.8L245.38 440.17L245.37 441.54L245.36 442.91L245.35 444.27L245.34 445.64L245.33 447.01L245.33 448.37L245.32 449.74L245.32 451.1L245.32 452.47L245.32 453.83L245.32 455.19L245.32 456.56L245.32 457.92L245.32 459.28L245.32 460.64L245.33 462L245.33 463.37L245.33 464.73L245.34 466.09L245.34 467.45L245.35 468.81L245.35 470.17L245.36 471.53L245.36 472.89L245.37 474.25L245.37 475.61L245.38 476.97L245.38 478.32L245.38 479.68L245.39 481.04L245.39 482.4L245.39 483.76L245.39 485.12L245.39 486.48L248.44 487.66L249.55 486.43L250.67 485.2L251.78 483.97L252.89 482.74L254 481.5L255.12 480.27L256.23 479.04L257.34 477.8L258.45 476.57L259.56 475.34L260.67 474.1L261.78 472.87L262.89 471.64L264 470.4L265.12 469.17L266.23 467.94L267.34 466.71L268.45 465.47L269.56 464.24L270.68 463.01L271.79 461.78L272.91 460.55L274.02 459.33L275.14 458.1L276.26 456.87L277.38 455.65L278.5 454.42L279.62 453.2L280.74 451.98L281.86 450.76L282.99 449.54L284.11 448.32L285.24 447.1L286.37 445.89L287.5 444.67L288.64 443.46L289.77 442.25L290.91 441.04L292.05 439.84L293.19 438.63L293.43 438.4L293.68 438.18L293.94 437.96L294.19 437.74L294.45 437.53L294.72 437.33L294.98 437.13L295.25 436.93L295.53 436.74L295.8 436.55L296.08 436.36L296.36 436.19L296.64 436.01L296.93 435.84L297.22 435.68L297.51 435.52L297.8 435.36L298.1 435.21L298.4 435.07L298.7 434.93L299 434.79L299.31 434.66L299.62 434.54L299.93 434.41L300.24 434.3L300.55 434.19L300.87 434.08L301.18 433.98L301.5 433.89L301.82 433.8L302.15 433.71L302.47 433.63L302.79 433.56L303.12 433.49L303.45 433.43L303.78 433.37L304.11 433.31L304.44 433.27L304.78 433.22L305.11 433.19L306.96 433L308.8 432.82L310.65 432.64L312.5 432.48L314.35 432.31L316.2 432.16L318.05 432.01L319.91 431.86L321.76 431.72L323.61 431.59L325.46 431.45L327.32 431.32L329.17 431.19L331.02 431.06L332.87 430.94L334.73 430.81L336.58 430.68L338.43 430.55L340.28 430.42L342.14 430.29L343.99 430.16L345.84 430.02L347.69 429.88L349.54 429.74L351.38 429.59L353.23 429.44L355.08 429.28L356.92 429.11L358.77 428.94L360.61 428.76L362.45 428.58L364.3 428.38L366.13 428.18L367.97 427.96L369.81 427.74L371.64 427.5L373.48 427.26L375.31 427L377.14 426.73L378.97 426.45L382.5 425.85L385.94 425.19L389.31 424.46L392.6 423.66L395.81 422.8L398.93 421.87L401.98 420.87L404.95 419.8L407.84 418.67L410.65 417.47L413.38 416.21L416.03 414.88L418.6 413.48L421.1 412.01L423.51 410.48L425.85 408.89L428.11 407.22L430.29 405.49L432.4 403.7L434.42 401.84L436.37 399.91L438.24 397.92L440.04 395.86L441.76 393.74L443.4 391.55L444.97 389.29L446.46 386.97L447.87 384.58L449.21 382.13L450.47 379.62L451.66 377.03L452.77 374.39L453.8 371.67L454.77 368.89L455.65 366.05L456.46 363.14L457.2 360.17L457.86 357.13L458.45 354.03L458.97 350.86L459.35 348.33L459.71 345.8L460.06 343.27L460.4 340.74L460.72 338.21L461.02 335.67L461.31 333.14L461.58 330.61L461.83 328.08L462.07 325.55L462.29 323.01L462.49 320.48L462.67 317.95L462.83 315.42L462.97 312.88L463.1 310.35L463.2 307.82L463.28 305.28L463.35 302.75L463.39 300.22L463.41 297.68L463.41 295.15L463.38 292.61L463.34 290.08L463.27 287.54L463.18 285.01L463.06 282.47L462.92 279.94L462.76 277.4L462.57 274.86L462.35 272.32L462.12 269.79L461.85 267.25L461.56 264.71L461.24 262.17L460.9 259.63L460.53 257.09L460.13 254.55L459.71 252.01L459.25 249.47L458.74 246.81L458.18 244.18L457.59 241.58L456.95 239.02L456.28 236.49L455.56 234L454.79 231.55L453.98 229.13L453.13 226.75L452.23 224.41L451.28 222.12L450.28 219.86L449.24 217.64L448.14 215.47L446.99 213.34L445.79 211.25L444.54 209.21L443.23 207.21L441.87 205.26L440.45 203.35L438.98 201.49L437.45 199.68L435.86 197.92L434.21 196.21L432.5 194.55L430.73 192.94L428.9 191.38L427 189.88L425.04 188.42L423.02 187.03L420.92 185.68L418.77 184.39L416.54 183.16L414.25 181.99L411.88 180.87L409.45 179.81L406.95 178.81L404.37 177.88L401.72 177L398.99 176.18L395.43 175.17L391.85 174.2L388.26 173.29L384.66 172.42L381.06 171.6L377.44 170.83L373.82 170.1L370.2 169.42L366.56 168.79L362.92 168.21L359.27 167.68L355.62 167.19L351.96 166.75L348.3 166.36L344.64 166.02L340.97 165.73L337.3 165.48L333.62 165.28L329.95 165.13L326.27 165.03L322.59 164.97L318.91 164.97L315.23 165.01L311.55 165.1Z" id="f42d2Ft2F"></path><path d="M253.6 217.6C263.69 214.32 269.5 220.98 274.55 228.13C280.62 236.67 286.48 245.37 292.26 254.12C297.08 261.39 295.43 267.9 288.57 272.62C274.04 282.61 275.2 289.32 282.32 304.1C290.84 321.73 305.34 334.17 322.86 342.81C331.46 347.02 338.74 346.19 344.85 337.29C352.31 326.45 359.59 325.52 370.66 333.11C379.59 339.23 388.05 346.01 396.77 352.49C404.21 357.99 404.85 365.16 400.26 372.15C395.88 378.59 390.8 384.52 385.11 389.83C378.27 396.34 369.83 396.9 361.37 393.24C300.18 366.68 256.85 322.58 232.26 260.65C230.8 256.58 229.63 252.41 228.75 248.18C228.57 236.36 241.14 221.65 253.6 217.6Z" id="a1IDblyl8"></path><path d="M397.34 302.81C395.35 281.19 390.99 260.49 375.51 244C360.03 227.51 340.65 220.05 318.74 218.27C365.03 215.69 400.88 254.61 397.34 302.81Z" id="b2hWvF5q74"></path><path d="M376.36 294.45C373.86 262.99 357.32 244.57 325.75 240C354.4 236.8 379.61 263.85 376.36 294.45Z" id="axNtCjvuL"></path><path d="M354.86 287.51C353.06 273.55 346.99 263.72 331.41 262.53C348.05 261.45 357.21 271.15 354.86 287.51Z" id="di9OJtuRz"></path></defs><g><g><use xlink:href="#f42d2Ft2F" opacity="1" fill="#f39c12" fill-opacity="1"></use><g><use xlink:href="#f42d2Ft2F" opacity="1" fill-opacity="0" stroke="#000000" stroke-width="1" stroke-opacity="0"></use></g></g><g><use xlink:href="#a1IDblyl8" opacity="1" fill="#f39c12" fill-opacity="1"></use><g><use xlink:href="#a1IDblyl8" opacity="1" fill-opacity="0" stroke="#000000" stroke-width="1" stroke-opacity="0"></use></g></g><g><use xlink:href="#b2hWvF5q74" opacity="1" fill="#f39c12" fill-opacity="1"></use><g><use xlink:href="#b2hWvF5q74" opacity="1" fill-opacity="0" stroke="#000000" stroke-width="1" stroke-opacity="0"></use></g></g><g><use xlink:href="#axNtCjvuL" opacity="1" fill="#f39c12" fill-opacity="1"></use><g><use xlink:href="#axNtCjvuL" opacity="1" fill-opacity="0" stroke="#000000" stroke-width="1" stroke-opacity="0"></use></g></g><g><use xlink:href="#di9OJtuRz" opacity="1" fill="#f39c12" fill-opacity="1"></use><g><use xlink:href="#di9OJtuRz" opacity="1" fill-opacity="0" stroke="#000000" stroke-width="1" stroke-opacity="0"></use></g></g></g></svg>